<?xml version="1.0" encoding="UTF-8"?>
<svg width="11px" height="11px" viewBox="0 0 11 11" version="1.1" xmlns="http://www.w3.org/2000/svg" xmlns:xlink="http://www.w3.org/1999/xlink">
    <!-- Generator: Sketch 62 (91390) - https://sketch.com -->
    <title>导出 (1)</title>
    <desc>Created with Sketch.</desc>
    <g id="页面-1" stroke="none" stroke-width="1" fill="none" fill-rule="evenodd">
        <g id="账单编辑（初次编辑）" transform="translate(-1150.000000, -145.000000)" fill="#595959" fill-rule="nonzero">
            <g id="编组-15" transform="translate(1136.000000, 137.000000)">
                <g id="导出-(1)" transform="translate(14.000000, 8.000000)">
                    <path d="M6.05897932,6.39181846 L7.32380745,6.77850233 C7.57278987,6.85461884 7.71292171,7.11815853 7.63680257,7.36715381 C7.56068343,7.61611686 7.2971346,7.75625459 7.0481307,7.68012735 L4.88415999,7.01856042 C4.50238264,6.90183985 4.28750667,6.4977435 4.40423128,6.11597938 L5.06582113,3.9520729 C5.14195102,3.70308836 5.40549984,3.56296138 5.65449299,3.63907788 C5.90347541,3.71520513 6.04360725,3.97874483 5.96748811,4.22772937 L5.56513949,5.54370917 L5.57010238,5.55304381 C7.76336702,4.54474182 9.38285921,2.64509475 10.0509158,0.348494615 C10.1254774,0.0921519373 10.393742,-0.0552042877 10.6500828,0.0193653888 C10.9064344,0.0939135916 11.0537957,0.362168947 10.9792342,0.618511625 C10.2419979,3.15293555 8.46539046,5.25604335 6.05899007,6.39181846 L6.05897932,6.39181846 Z M10.0571475,5.50019053 C10.0571475,5.23984115 10.26821,5.02877521 10.5285684,5.02877521 C10.7889375,5.02877521 11,5.23984114 11,5.50019053 L11,9.90003811 C11,10.5075307 10.5075137,11 9.9,11 L1.1,11 C0.492486328,11 0,10.5075307 0,9.90003811 L0,1.10034295 C0,0.492850328 0.492486328,0.000381060926 1.1,0.000381060926 L5.5,0.000381060926 C5.7603584,0.000381060926 5.97143165,0.211436245 5.97143165,0.471796371 C5.97143165,0.732145745 5.76035841,0.94320094 5.5,0.94320094 L1.1,0.94320094 C1.01320313,0.94320094 0.942852541,1.01355983 0.942852541,1.10034295 L0.942852541,9.90003811 C0.942852541,9.98683197 1.01321387,10.0571801 1.1,10.0571801 L9.9,10.0571801 C9.98679687,10.0571801 10.0571475,9.98682123 10.0571475,9.90003811 L10.0571475,5.50019053 Z" id="形状"></path>
                </g>
            </g>
        </g>
    </g>
</svg>